<?xml version="1.0" standalone="no"?>
<!DOCTYPE svg PUBLIC "-//W3C//DTD SVG 20010904//EN"
 "http://www.w3.org/TR/2001/REC-SVG-20010904/DTD/svg10.dtd">
<svg version="1.0" xmlns="http://www.w3.org/2000/svg"
 width="512.000000pt" height="512.000000pt" viewBox="0 0 512.000000 512.000000"
 preserveAspectRatio="xMidYMid meet">

<g transform="translate(0.000000,512.000000) scale(0.100000,-0.100000)"
fill="#000000" stroke="none">
<path d="M0 2560 l0 -2560 2560 0 2560 0 0 2560 0 2560 -2560 0 -2560 0 0
-2560z m1320 1925 l0 -295 -325 0 -325 0 0 295 0 295 325 0 325 0 0 -295z m34
-522 c48 -96 68 -181 73 -315 7 -166 -12 -269 -84 -442 -13 -32 -23 -59 -21
-61 2 -1 36 -10 76 -18 93 -21 201 -72 277 -130 68 -52 103 -98 116 -154 12
-53 12 -2239 -1 -2282 -19 -69 -85 -112 -237 -156 -159 -47 -274 -59 -558 -59
-284 0 -399 12 -558 59 -164 47 -230 96 -242 178 -3 23 -5 544 -3 1157 3 1268
-7 1136 98 1233 73 68 194 130 300 153 41 9 77 18 78 20 2 1 -6 24 -18 51 -60
134 -91 275 -91 411 0 144 12 204 68 340 l26 62 338 0 339 0 24 -47z m1600
-182 c90 -39 136 -132 136 -271 0 -142 -52 -244 -147 -287 -78 -36 -155 -40
-240 -15 -78 24 -111 52 -145 127 -19 42 -23 67 -23 155 1 111 11 149 61 221
27 39 90 79 144 90 53 12 168 1 214 -20z m635 8 c50 -20 93 -62 119 -118 23
-49 26 -69 26 -162 0 -99 -2 -110 -32 -172 -25 -49 -43 -73 -78 -95 -124 -83
-311 -61 -391 45 -72 96 -72 303 0 411 34 49 96 90 157 103 42 9 162 2 199
-12z m501 10 c60 -13 83 -40 74 -86 l-6 -31 -42 19 c-108 49 -209 -1 -166 -82
6 -10 48 -38 93 -60 89 -45 121 -70 143 -111 18 -34 18 -99 0 -141 -44 -104
-206 -148 -325 -88 -37 19 -41 25 -41 60 0 21 3 40 6 43 3 4 30 -5 61 -19 43
-20 66 -24 104 -21 63 6 89 29 89 78 0 45 -10 55 -118 110 -97 50 -124 82
-130 155 -7 88 27 139 116 171 46 16 77 17 142 3z m-1756 -24 c50 -24 76 -67
76 -128 0 -43 -5 -54 -35 -84 -33 -33 -38 -53 -12 -53 36 -1 87 -80 87 -134 0
-42 -29 -101 -60 -125 -16 -11 -55 -28 -87 -36 -70 -18 -254 -20 -271 -3 -18
18 -17 559 1 577 20 21 251 10 301 -14z m2311 -20 l0 -40 -113 -3 -113 -3 3
-77 3 -77 95 -5 95 -5 0 -35 0 -35 -97 -3 -98 -3 0 -89 0 -89 113 -3 112 -3 0
-40 0 -40 -145 -3 c-80 -1 -155 0 -167 3 l-23 5 0 289 c0 158 3 291 7 295 4 3
79 5 167 4 l161 -3 0 -40z m-1704 -1886 c242 -19 370 -56 377 -109 2 -13 -31
-306 -73 -650 -77 -619 -78 -625 -104 -648 -32 -27 -110 -57 -205 -79 -99 -23
-403 -23 -502 0 -95 22 -173 52 -205 79 -26 23 -27 29 -104 648 -42 344 -75
637 -73 650 12 89 457 144 889 109z m1600 0 c242 -19 370 -56 377 -109 2 -13
-31 -306 -73 -650 -77 -619 -78 -625 -104 -648 -32 -27 -110 -57 -205 -79 -99
-23 -403 -23 -502 0 -95 22 -173 52 -205 79 -26 23 -27 29 -104 648 -42 344
-75 637 -73 650 12 89 457 144 889 109z"/>
<path d="M865 2651 c-83 -24 -139 -55 -186 -102 -47 -47 -89 -130 -89 -176 l0
-33 -115 0 -115 0 0 -560 0 -560 635 0 635 0 0 560 0 560 -115 0 -115 0 0 33
c0 19 -13 60 -30 93 -79 159 -307 243 -505 185z"/>
<path d="M2770 3713 c-36 -7 -78 -40 -98 -76 -26 -49 -24 -230 3 -276 33 -56
68 -76 135 -76 110 0 160 68 160 219 0 141 -38 199 -136 210 -22 2 -50 2 -64
-1z"/>
<path d="M3412 3711 c-77 -20 -111 -86 -112 -215 0 -115 21 -165 84 -195 54
-27 91 -26 146 2 67 34 85 77 85 202 0 109 -14 149 -65 186 -30 22 -93 31
-138 20z"/>
<path d="M2137 3713 c-4 -3 -7 -42 -7 -85 l0 -78 60 0 c51 0 65 4 85 25 27 26
33 72 15 105 -16 29 -132 54 -153 33z"/>
<path d="M2130 3381 l0 -91 74 0 c95 0 126 20 126 84 0 66 -31 90 -126 94
l-74 4 0 -91z"/>
<path d="M2538 1001 c-80 -26 -122 -55 -158 -109 -32 -47 -32 -47 -26 -146 4
-54 12 -110 19 -125 31 -64 137 -96 317 -96 178 1 276 32 307 96 7 14 15 68
19 120 6 83 4 99 -14 134 -24 49 -59 82 -72 69 -5 -5 -24 -52 -44 -104 l-35
-95 0 126 -1 127 -44 11 c-68 17 -202 13 -268 -8z"/>
<path d="M4117 1298 c-73 -23 -146 -77 -172 -129 -19 -36 -18 -97 4 -348 l18
-205 31 -27 c46 -41 167 -69 292 -69 80 1 207 23 246 43 63 32 65 40 85 259
28 308 25 342 -29 391 -19 17 -20 15 -78 -143 l-59 -161 -3 195 -2 195 -38 11
c-64 17 -219 11 -295 -12z"/>
</g>
</svg>
